<!DOCTYPE svg PUBLIC "-//W3C//DTD SVG 1.1//EN" "http://www.w3.org/Graphics/SVG/1.1/DTD/svg11.dtd">
<!-- Uploaded to: SVG Find, www.svgrepo.com, Transformed by: SVG Find Mixer Tools -->
<svg fill="#000980" width="800px" height="800px" version="1.1" viewBox="144 144 512 512" xmlns="http://www.w3.org/2000/svg" stroke="#000980">
<g id="SVGRepo_bgCarrier" stroke-width="0"/>
<g id="SVGRepo_tracerCarrier" stroke-linecap="round" stroke-linejoin="round"/>
<g id="SVGRepo_iconCarrier"> <g> <path d="m611.37 438.16h-75.266c0.76172-4.5039 1.5273-9.082 2.4414-13.586l10.152-50.383c10.992-55.039-3.3594-111.3-39.312-154.5-34.734-41.527-85.266-64.73-138.32-63.969-96.945 1.6055-175.8 81.906-175.8 178.93v18.777l-37.863 96.184c-1.9102 4.8867-1.2227 10.457 1.7539 14.734 2.9766 4.2734 7.8633 6.8711 13.055 6.8711h28.32l6.3359 81.062c0.99219 14.047 12.902 25.113 27.098 25.113h69.008v59.465c0 4.0469 3.2812 7.4062 7.4062 7.4062h300.99c17.785 0 32.289-14.504 32.289-32.289v-141.52c0-17.789-14.504-32.293-32.289-32.293zm-300.99 124.5h-76.414c-6.4883 0-11.91-5.0391-12.367-11.449l-6.8711-88.016c-0.30469-3.8164-3.5117-6.793-7.3281-6.793h-35.113c-0.15234 0-0.60937 0-0.91797-0.45703-0.23047-0.30469-0.23047-0.6875-0.15234-1.0703l38.32-97.402c0.30469-0.83984 0.53516-1.7539 0.53516-2.6719v-20.152c0-89.008 72.367-162.67 161.3-164.12 49.008-0.60938 94.883 20.535 126.64 58.625 33.129 39.695 46.336 91.527 36.184 142.14l-10.152 50.383c-1.0703 5.4961-2.0625 10.992-2.9766 16.488h-29.082c-17.785 0-32.289 14.504-32.289 32.289v141.52c0 6.4883 1.9844 12.441 5.2656 17.48h-147.25v-59.465c0-4.0469-3.2852-7.3281-7.3281-7.3281zm318.47 49.312c0 9.6953-7.8633 17.559-17.559 17.559h-119.23-0.078125-0.23047c-9.543-0.15234-17.328-7.9375-17.328-17.48l0.003906-141.6c0-9.6953 7.8633-17.559 17.559-17.559h119.39c9.6953 0 17.559 7.8633 17.559 17.559l-0.003907 141.52z"/> <path d="m532.59 478.16h-37.25c-4.0469 0-7.4062 3.2812-7.4062 7.4062v37.25c0 4.0469 3.2812 7.4062 7.4062 7.4062h37.25c4.0469 0 7.4062-3.2812 7.4062-7.4062l-0.003906-37.328c0-4.043-3.3594-7.3281-7.4023-7.3281zm-7.4062 37.176h-22.441v-22.441h22.441z"/> <path d="m532.59 552.29h-37.25c-4.0469 0-7.4062 3.2812-7.4062 7.4062v37.25c0 4.0469 3.2812 7.4062 7.4062 7.4062h37.25c4.0469 0 7.4062-3.2812 7.4062-7.4062v-37.25c-0.003906-4.1211-3.3633-7.4062-7.4062-7.4062zm-7.4062 37.254h-22.441v-22.441h22.441z"/> <path d="m607.93 480.91h-40.609c-4.0469 0-7.4062 3.2812-7.4062 7.4062 0 4.0469 3.2812 7.4062 7.4062 7.4062h40.609c4.0469 0 7.4062-3.2812 7.4062-7.4062s-3.2852-7.4062-7.4062-7.4062z"/> <path d="m567.32 521.52h24.273c4.0469 0 7.4062-3.2812 7.4062-7.4062 0-4.1211-3.2812-7.4062-7.4062-7.4062h-24.273c-4.0469 0-7.4062 3.2812-7.4062 7.4062s3.3594 7.4062 7.4062 7.4062z"/> <path d="m607.93 557.93h-40.609c-4.0469 0-7.4062 3.2812-7.4062 7.4062 0 4.0469 3.2812 7.4062 7.4062 7.4062h40.609c4.0469 0 7.4062-3.2812 7.4062-7.4062 0-4.0469-3.2852-7.4062-7.4062-7.4062z"/> <path d="m591.68 583.81h-24.273c-4.0469 0-7.4062 3.2812-7.4062 7.4062 0 4.0469 3.2812 7.4062 7.4062 7.4062h24.273c4.0469 0 7.4062-3.2812 7.4062-7.4062-0.078125-4.125-3.3594-7.4062-7.4062-7.4062z"/> <path d="m360.84 409.77c10.383 0 20.457-3.5859 28.398-10.078 6.5664 3.6641 13.895 5.5742 21.68 5.5742h0.38281l17.559 27.863c4.7344 7.4805 12.746 11.754 21.145 11.754 3.2812 0 6.6406-0.6875 9.8477-2.0625 6.6406-2.8242 11.754-8.3984 14.047-15.344 2.2891-6.9453 1.375-14.426-2.3672-20.688l-7.4805-12.441c18.09-6.2578 30.457-23.512 30.457-42.824 0-7.3281-1.7539-14.426-5.0391-20.84 9.7695-8.5508 15.496-20.84 15.496-34.121 0-24.961-20.305-45.344-45.266-45.344h-0.23047c-6.5664-17.328-23.512-29.391-42.441-29.391-7.8633 0-15.574 2.0625-22.289 5.8789-8.0156-10.383-20.305-16.566-33.816-16.566-16.258 0-30.762 9.0078-38.016 23.129-4.9609-1.2227-10.23-1.5273-15.344-0.83984-20.84 2.5938-37.176 20.914-37.402 41.984-12.062 7.8633-19.391 21.145-19.391 35.801 0 7.8633 2.2148 15.574 6.2578 22.289-5.1133 8.625-7.1758 18.703-5.8789 28.855 2.5938 20.688 19.543 37.176 40.305 39.234 12.289 1.2227 24.047-2.3672 33.281-9.9219 8.3945 11.305 21.676 18.098 36.105 18.098zm-40.535-34.504c-6.4883 8.3984-16.719 12.824-27.402 11.754-13.969-1.375-25.344-12.52-27.098-26.41-0.99219-8.168 1.1445-16.184 6.0312-22.594 0 0 0-0.078125 0.078124-0.15234 0 0 0.078126 0 0.078126-0.078125 1.2969-1.7539 13.129-16.871 32.137-8.168 3.7422 1.6797 8.0898 0.078124 9.7695-3.5859 1.6797-3.7422 0.078124-8.0898-3.5859-9.7695-18.168-8.3203-33.359-2.2891-42.746 5.1914-1.2227-3.207-1.9844-6.5664-1.9844-10.152 0-10.688 5.9531-20.305 15.496-25.039 0.078125 0 0.078125-0.078125 0.15234-0.15234 0.078125 0 0.15234-0.078125 0.23047-0.078125 0.23047-0.15234 20.457-11.527 34.961-3.2812 3.5117 1.9844 8.0898 0.76172 10.078-2.8242 1.9844-3.5117 0.76172-8.0898-2.8242-10.078-12.977-7.3281-27.48-5.0391-37.48-1.832 3.1289-10.383 12.137-18.551 23.129-19.922 5.1133-0.60938 10.152 0.078125 14.809 2.1367 1.9102 0.83984 4.1211 0.83984 6.0312-0.078125 1.9102-0.83984 3.3594-2.5195 3.9688-4.5039 3.6641-11.754 14.352-19.695 26.719-19.695 10.609 0 20.152 5.8789 24.961 15.418 2.9766 6.9453 5.418 18.242 1.9844 21.07-3.1289 2.5938-3.5859 7.25-0.99219 10.383 1.4492 1.7539 3.5859 2.6719 5.7266 2.6719 1.6797 0 3.3594-0.53516 4.7344-1.6797 10.152-8.3984 6.9453-24.273 4.1992-32.898 4.6562-2.75 10-4.2734 15.574-4.2734 14.273 0 26.793 10.078 29.848 23.969 0.83984 3.8164 4.5039 6.2578 8.3203 5.7266 1.4492-0.23047 2.9766-0.30469 4.5039-0.30469 16.871 0 30.535 13.742 30.535 30.535 0 10.609-5.418 20.383-14.426 25.953-0.91797 0.53516-1.6797 1.2969-2.2148 2.1367h-0.078125c-0.30469 0.38281-7.3281 9.6953-31.906 1.1445-3.8945-1.2969-8.0898 0.6875-9.3906 4.582-1.2969 3.8164 0.6875 8.0898 4.582 9.3906 9.082 3.1289 16.641 4.3516 22.902 4.3516 7.9375 0 13.664-1.9102 17.785-4.1992 1.4492 3.5859 2.3672 7.4805 2.3672 11.527 0 13.586-9.082 25.648-22.062 29.312-3.8945 1.0703-6.9453 3.8945-8.3984 7.6328-1.5273 3.8164-1.1445 8.0156 0.99219 11.527l8.625 14.352c1.5273 2.5938 1.9102 5.5742 0.99219 8.4727-0.91797 2.9023-2.9766 5.1133-5.7266 6.2578-4.6562 1.9844-10 0.30469-12.746-3.9688l-17.559-27.863c-2.6719-4.2734-7.4062-6.793-12.594-6.793-4.8086 0-9.4648-1.1445-13.664-3.2812 8.9297-26.641-4.8867-43.512-5.4961-44.199-2.5938-3.1289-7.1758-3.4336-10.305-0.91797-3.1289 2.5938-3.5859 7.1758-1.0703 10.383 0.45703 0.53516 10.078 12.977 1.5273 33.512-5.7266 5.7266-13.207 8.9297-21.375 8.9297-12.137 0-23.055-7.1758-27.938-18.242-1.0703-2.3672-3.2812-4.0469-5.8789-4.3516-2.8398-0.16016-5.3594 0.98438-6.8867 3.0469z"/> <path d="m418.55 305.04c0.38281 0 0.83984 0 1.2227-0.078124 7.1758-1.2227 12.902-4.6562 16.566-10.078 6.7188-9.9219 4.1992-22.672 3.8945-24.121-0.83984-3.9688-4.8086-6.4883-8.7031-5.6484-3.9688 0.83984-6.4883 4.7344-5.7266 8.7031 0.45703 2.2148 1.0703 8.7773-1.6797 12.746-1.375 1.9844-3.5859 3.207-6.7188 3.7422-4.0469 0.6875-6.7188 4.5039-6.1055 8.4727 0.60938 3.7422 3.7383 6.2617 7.25 6.2617z"/> <path d="m323.89 305.73c7.3281 0 13.816-2.1367 19.312-6.4141 1.0703-0.83984 2.0625-1.7539 2.9766-2.6719 3.9688 2.0625 8.8555 5.4961 10.992 10 1.4492 3.1289 1.375 6.4883-0.15234 10.383-1.5273 3.8164 0.38281 8.0898 4.1992 9.543 0.91797 0.38281 1.832 0.53516 2.6719 0.53516 2.9766 0 5.7266-1.7539 6.8711-4.6562 2.9766-7.6328 2.9023-15.266-0.23047-22.062-3.6641-7.8633-10.609-13.055-16.184-16.105 3.8164-8.7773 4.4258-17.023 4.4258-17.559 0.23047-4.0469-2.8242-7.5586-6.8711-7.8633-3.8945-0.23047-7.5586 2.8242-7.8633 6.8711 0 0.15234-1.2227 15.113-9.8477 21.832-3.9688 3.1289-9.082 3.9688-15.574 2.75-4.0469-0.76172-7.8633 1.9102-8.625 5.8789-0.76172 4.0469 1.832 7.8633 5.8789 8.625 2.75 0.60547 5.5 0.91406 8.0195 0.91406z"/> <path d="m343.36 365.19c1.4492 0 2.9766-0.078125 4.5039-0.30469 4.0469-0.45703 6.9453-4.1992 6.4141-8.2461-0.45703-4.0469-4.0469-7.0234-8.2461-6.4141-4.6562 0.60938-8.2461-0.23047-10.914-2.3672-4.8867-3.8945-5.7266-11.297-5.7266-11.602-0.38281-4.0469-4.0469-7.0977-8.0156-6.7188-4.0469 0.38281-7.0977 3.8945-6.7188 8.0156 0.15234 1.375 1.4492 13.895 11.07 21.68 4.8086 3.9727 10.836 5.957 17.633 5.957z"/> <path d="m411.91 368.09c0.078125 0 6.4141-2.2891 11.145 0.38281 3.1289 1.7539 5.2656 5.418 6.4141 11.07 0.6875 3.5117 3.8164 5.8789 7.25 5.8789 0.53516 0 0.99219-0.078125 1.5273-0.15234 3.9688-0.83984 6.5664-4.7344 5.7266-8.7031-2.0625-10.078-6.7188-17.176-13.816-21.07-10.609-5.8008-22.137-1.7539-23.359-1.2227-3.8164 1.4492-5.6484 5.6484-4.2734 9.4648 1.2969 3.8164 5.5703 5.7266 9.3867 4.3516z"/> </g> </g>
</svg>